<mxfile host="app.diagrams.net" modified="2023-09-20T16:09:29.206Z" agent="Mozilla/5.0 (Windows NT 10.0; Win64; x64) AppleWebKit/537.36 (KHTML, like Gecko) Chrome/116.0.0.0 Safari/537.36" etag="BgsYr8dWcVPNanp749gR" version="21.7.5" type="device">
  <diagram name="Trang-1" id="d5UA0YwqTU-LNje7zdAx">
    <mxGraphModel dx="1235" dy="1445" grid="1" gridSize="10" guides="1" tooltips="1" connect="1" arrows="1" fold="1" page="1" pageScale="1" pageWidth="1169" pageHeight="827" math="0" shadow="0">
      <root>
        <mxCell id="0" />
        <mxCell id="1" parent="0" />
        <mxCell id="Ycqe67KzQKF9UucwXWQT-1" value="ADMIN" style="shape=umlActor;verticalLabelPosition=bottom;verticalAlign=top;html=1;outlineConnect=0;" vertex="1" parent="1">
          <mxGeometry x="300" y="200" width="30" height="60" as="geometry" />
        </mxCell>
        <mxCell id="Ycqe67KzQKF9UucwXWQT-5" value="CUSTOMER" style="shape=umlActor;verticalLabelPosition=bottom;verticalAlign=top;html=1;outlineConnect=0;" vertex="1" parent="1">
          <mxGeometry x="650" y="200" width="30" height="60" as="geometry" />
        </mxCell>
        <mxCell id="Ycqe67KzQKF9UucwXWQT-8" value="Quản lý tài khoản" style="ellipse;whiteSpace=wrap;html=1;" vertex="1" parent="1">
          <mxGeometry x="60" y="390" width="150" height="70" as="geometry" />
        </mxCell>
        <mxCell id="Ycqe67KzQKF9UucwXWQT-11" value="Đăng nhập" style="ellipse;whiteSpace=wrap;html=1;" vertex="1" parent="1">
          <mxGeometry x="410" y="195" width="160" height="70" as="geometry" />
        </mxCell>
        <mxCell id="Ycqe67KzQKF9UucwXWQT-12" value="Xem&amp;nbsp;Sản Phẩm" style="ellipse;whiteSpace=wrap;html=1;" vertex="1" parent="1">
          <mxGeometry x="830" y="115" width="150" height="70" as="geometry" />
        </mxCell>
        <mxCell id="Ycqe67KzQKF9UucwXWQT-13" value="Mua, đặt sản phẩm" style="ellipse;whiteSpace=wrap;html=1;" vertex="1" parent="1">
          <mxGeometry x="830" y="500" width="150" height="70" as="geometry" />
        </mxCell>
        <mxCell id="Ycqe67KzQKF9UucwXWQT-14" value="Xem Lịch Sử Đơn Hàng" style="ellipse;whiteSpace=wrap;html=1;" vertex="1" parent="1">
          <mxGeometry x="830" y="210" width="150" height="70" as="geometry" />
        </mxCell>
        <mxCell id="Ycqe67KzQKF9UucwXWQT-15" value="Quản lý Sản Phẩm" style="ellipse;whiteSpace=wrap;html=1;" vertex="1" parent="1">
          <mxGeometry x="40" y="195" width="150" height="70" as="geometry" />
        </mxCell>
        <mxCell id="Ycqe67KzQKF9UucwXWQT-16" value="Quản lý Đơn Hàng" style="ellipse;whiteSpace=wrap;html=1;" vertex="1" parent="1">
          <mxGeometry x="40" y="110" width="150" height="70" as="geometry" />
        </mxCell>
        <mxCell id="Ycqe67KzQKF9UucwXWQT-18" value="Báo Cáo Thống &lt;br&gt;Kê Doanh Thu" style="ellipse;whiteSpace=wrap;html=1;" vertex="1" parent="1">
          <mxGeometry x="50" y="290" width="150" height="70" as="geometry" />
        </mxCell>
        <mxCell id="Ycqe67KzQKF9UucwXWQT-19" value="" style="endArrow=none;html=1;rounded=0;exitX=1;exitY=0;exitDx=0;exitDy=0;entryX=0.5;entryY=0.5;entryDx=0;entryDy=0;entryPerimeter=0;" edge="1" parent="1" source="Ycqe67KzQKF9UucwXWQT-18" target="Ycqe67KzQKF9UucwXWQT-1">
          <mxGeometry width="50" height="50" relative="1" as="geometry">
            <mxPoint x="110" y="240" as="sourcePoint" />
            <mxPoint x="160" y="190" as="targetPoint" />
          </mxGeometry>
        </mxCell>
        <mxCell id="Ycqe67KzQKF9UucwXWQT-21" value="" style="endArrow=none;html=1;rounded=0;exitX=0.5;exitY=0.5;exitDx=0;exitDy=0;entryX=1;entryY=1;entryDx=0;entryDy=0;exitPerimeter=0;" edge="1" parent="1" source="Ycqe67KzQKF9UucwXWQT-1" target="Ycqe67KzQKF9UucwXWQT-16">
          <mxGeometry width="50" height="50" relative="1" as="geometry">
            <mxPoint x="140" y="280" as="sourcePoint" />
            <mxPoint x="200" y="270" as="targetPoint" />
          </mxGeometry>
        </mxCell>
        <mxCell id="Ycqe67KzQKF9UucwXWQT-22" value="" style="endArrow=none;html=1;rounded=0;entryX=0;entryY=0.5;entryDx=0;entryDy=0;exitX=0.5;exitY=0.5;exitDx=0;exitDy=0;exitPerimeter=0;" edge="1" parent="1" source="Ycqe67KzQKF9UucwXWQT-1" target="Ycqe67KzQKF9UucwXWQT-11">
          <mxGeometry width="50" height="50" relative="1" as="geometry">
            <mxPoint x="160" y="290" as="sourcePoint" />
            <mxPoint x="210" y="280" as="targetPoint" />
          </mxGeometry>
        </mxCell>
        <mxCell id="Ycqe67KzQKF9UucwXWQT-23" value="" style="endArrow=none;html=1;rounded=0;entryX=1;entryY=0.5;entryDx=0;entryDy=0;exitX=0.5;exitY=0.5;exitDx=0;exitDy=0;exitPerimeter=0;" edge="1" parent="1" source="Ycqe67KzQKF9UucwXWQT-1" target="Ycqe67KzQKF9UucwXWQT-15">
          <mxGeometry width="50" height="50" relative="1" as="geometry">
            <mxPoint x="210" y="290" as="sourcePoint" />
            <mxPoint x="220" y="290" as="targetPoint" />
          </mxGeometry>
        </mxCell>
        <mxCell id="Ycqe67KzQKF9UucwXWQT-24" value="" style="endArrow=none;html=1;rounded=0;exitX=1;exitY=0;exitDx=0;exitDy=0;entryX=0.5;entryY=0.5;entryDx=0;entryDy=0;entryPerimeter=0;" edge="1" parent="1" source="Ycqe67KzQKF9UucwXWQT-8" target="Ycqe67KzQKF9UucwXWQT-1">
          <mxGeometry width="50" height="50" relative="1" as="geometry">
            <mxPoint x="170" y="310" as="sourcePoint" />
            <mxPoint x="230" y="300" as="targetPoint" />
          </mxGeometry>
        </mxCell>
        <mxCell id="Ycqe67KzQKF9UucwXWQT-26" value="" style="endArrow=none;html=1;rounded=0;entryX=0.5;entryY=0.5;entryDx=0;entryDy=0;exitX=1;exitY=0.5;exitDx=0;exitDy=0;entryPerimeter=0;" edge="1" parent="1" source="Ycqe67KzQKF9UucwXWQT-11" target="Ycqe67KzQKF9UucwXWQT-5">
          <mxGeometry width="50" height="50" relative="1" as="geometry">
            <mxPoint x="225" y="230" as="sourcePoint" />
            <mxPoint x="450" y="255" as="targetPoint" />
          </mxGeometry>
        </mxCell>
        <mxCell id="Ycqe67KzQKF9UucwXWQT-27" value="" style="endArrow=none;html=1;rounded=0;entryX=0;entryY=1;entryDx=0;entryDy=0;exitX=0.5;exitY=0.5;exitDx=0;exitDy=0;exitPerimeter=0;" edge="1" parent="1" source="Ycqe67KzQKF9UucwXWQT-5" target="Ycqe67KzQKF9UucwXWQT-14">
          <mxGeometry width="50" height="50" relative="1" as="geometry">
            <mxPoint x="235" y="240" as="sourcePoint" />
            <mxPoint x="460" y="265" as="targetPoint" />
          </mxGeometry>
        </mxCell>
        <mxCell id="Ycqe67KzQKF9UucwXWQT-28" value="" style="endArrow=none;html=1;rounded=0;entryX=0;entryY=0.5;entryDx=0;entryDy=0;exitX=0.5;exitY=0.5;exitDx=0;exitDy=0;exitPerimeter=0;" edge="1" parent="1" source="Ycqe67KzQKF9UucwXWQT-5" target="Ycqe67KzQKF9UucwXWQT-13">
          <mxGeometry width="50" height="50" relative="1" as="geometry">
            <mxPoint x="245" y="250" as="sourcePoint" />
            <mxPoint x="470" y="275" as="targetPoint" />
          </mxGeometry>
        </mxCell>
        <mxCell id="Ycqe67KzQKF9UucwXWQT-29" value="" style="endArrow=none;html=1;rounded=0;entryX=0;entryY=1;entryDx=0;entryDy=0;exitX=0.5;exitY=0.5;exitDx=0;exitDy=0;exitPerimeter=0;" edge="1" parent="1" source="Ycqe67KzQKF9UucwXWQT-5" target="Ycqe67KzQKF9UucwXWQT-12">
          <mxGeometry width="50" height="50" relative="1" as="geometry">
            <mxPoint x="255" y="260" as="sourcePoint" />
            <mxPoint x="480" y="285" as="targetPoint" />
          </mxGeometry>
        </mxCell>
        <mxCell id="Ycqe67KzQKF9UucwXWQT-30" value="Quản lý thông &lt;br&gt;tin cá nhân" style="ellipse;whiteSpace=wrap;html=1;" vertex="1" parent="1">
          <mxGeometry x="825" y="400" width="160" height="70" as="geometry" />
        </mxCell>
        <mxCell id="Ycqe67KzQKF9UucwXWQT-31" value="Đăng ký" style="ellipse;whiteSpace=wrap;html=1;" vertex="1" parent="1">
          <mxGeometry x="820" y="30" width="160" height="70" as="geometry" />
        </mxCell>
        <mxCell id="Ycqe67KzQKF9UucwXWQT-32" value="Thanh toán" style="ellipse;whiteSpace=wrap;html=1;" vertex="1" parent="1">
          <mxGeometry x="820" y="-80" width="150" height="70" as="geometry" />
        </mxCell>
        <mxCell id="Ycqe67KzQKF9UucwXWQT-33" value="Chat bot" style="ellipse;whiteSpace=wrap;html=1;" vertex="1" parent="1">
          <mxGeometry x="830" y="300" width="150" height="70" as="geometry" />
        </mxCell>
        <mxCell id="Ycqe67KzQKF9UucwXWQT-34" value="" style="endArrow=none;html=1;rounded=0;entryX=0;entryY=1;entryDx=0;entryDy=0;exitX=0.5;exitY=0.5;exitDx=0;exitDy=0;exitPerimeter=0;" edge="1" parent="1" source="Ycqe67KzQKF9UucwXWQT-5" target="Ycqe67KzQKF9UucwXWQT-31">
          <mxGeometry width="50" height="50" relative="1" as="geometry">
            <mxPoint x="895" y="270" as="sourcePoint" />
            <mxPoint x="993" y="229" as="targetPoint" />
          </mxGeometry>
        </mxCell>
        <mxCell id="Ycqe67KzQKF9UucwXWQT-35" value="" style="endArrow=none;html=1;rounded=0;entryX=0.5;entryY=0.5;entryDx=0;entryDy=0;exitX=0;exitY=1;exitDx=0;exitDy=0;entryPerimeter=0;" edge="1" parent="1" source="Ycqe67KzQKF9UucwXWQT-32" target="Ycqe67KzQKF9UucwXWQT-5">
          <mxGeometry width="50" height="50" relative="1" as="geometry">
            <mxPoint x="905" y="280" as="sourcePoint" />
            <mxPoint x="1003" y="239" as="targetPoint" />
          </mxGeometry>
        </mxCell>
        <mxCell id="Ycqe67KzQKF9UucwXWQT-36" value="" style="endArrow=none;html=1;rounded=0;entryX=0;entryY=0.5;entryDx=0;entryDy=0;exitX=0.5;exitY=0.5;exitDx=0;exitDy=0;exitPerimeter=0;" edge="1" parent="1" source="Ycqe67KzQKF9UucwXWQT-5" target="Ycqe67KzQKF9UucwXWQT-33">
          <mxGeometry width="50" height="50" relative="1" as="geometry">
            <mxPoint x="900" y="264" as="sourcePoint" />
            <mxPoint x="895" y="270" as="targetPoint" />
          </mxGeometry>
        </mxCell>
        <mxCell id="Ycqe67KzQKF9UucwXWQT-37" value="" style="endArrow=none;html=1;rounded=0;entryX=0.5;entryY=0.5;entryDx=0;entryDy=0;exitX=0;exitY=0;exitDx=0;exitDy=0;entryPerimeter=0;" edge="1" parent="1" source="Ycqe67KzQKF9UucwXWQT-30" target="Ycqe67KzQKF9UucwXWQT-5">
          <mxGeometry width="50" height="50" relative="1" as="geometry">
            <mxPoint x="795" y="390" as="sourcePoint" />
            <mxPoint x="905" y="280" as="targetPoint" />
          </mxGeometry>
        </mxCell>
        <mxCell id="Ycqe67KzQKF9UucwXWQT-42" value="Quản lý loại sản phẩm" style="ellipse;whiteSpace=wrap;html=1;" vertex="1" parent="1">
          <mxGeometry x="120" y="30" width="150" height="70" as="geometry" />
        </mxCell>
        <mxCell id="Ycqe67KzQKF9UucwXWQT-43" value="" style="endArrow=none;html=1;rounded=0;exitX=0.5;exitY=0.5;exitDx=0;exitDy=0;entryX=0.5;entryY=1;entryDx=0;entryDy=0;exitPerimeter=0;" edge="1" parent="1" source="Ycqe67KzQKF9UucwXWQT-1" target="Ycqe67KzQKF9UucwXWQT-42">
          <mxGeometry width="50" height="50" relative="1" as="geometry">
            <mxPoint x="325" y="240" as="sourcePoint" />
            <mxPoint x="188" y="140" as="targetPoint" />
          </mxGeometry>
        </mxCell>
      </root>
    </mxGraphModel>
  </diagram>
</mxfile>
